<svg width="265" height="265" viewBox="0 0 265 265" fill="none" xmlns="http://www.w3.org/2000/svg">
<rect width="265" height="265" rx="25" fill="#171616"/>
<path d="M32.536 136V89.632H40.6L55.288 119.656L69.904 89.632H77.968V136H70.192V102.376L57.664 128.008H52.912L40.312 102.376V136H32.536ZM107.548 136.72C100.204 136.72 94.7082 134.8 91.0602 130.96C87.4122 127.072 85.5882 121.072 85.5882 112.96C85.5882 104.512 87.4122 98.392 91.0602 94.6C94.7082 90.808 100.204 88.912 107.548 88.912C114.94 88.912 120.436 90.808 124.036 94.6C127.684 98.392 129.508 104.512 129.508 112.96C129.508 121.072 127.684 127.072 124.036 130.96C120.436 134.8 114.94 136.72 107.548 136.72ZM107.548 130.096C112.396 130.096 115.948 128.776 118.204 126.136C120.508 123.448 121.66 119.056 121.66 112.96C121.66 106.528 120.508 102.04 118.204 99.496C115.948 96.904 112.396 95.608 107.548 95.608C102.748 95.608 99.1962 96.904 96.8922 99.496C94.6362 102.04 93.5082 106.528 93.5082 112.96C93.5082 119.056 94.6362 123.448 96.8922 126.136C99.1962 128.776 102.748 130.096 107.548 130.096ZM137.161 136V89.632H144.073L168.265 123.76V89.632H176.041V136H169.129L145.009 101.944V136H137.161ZM205.704 136.72C198.36 136.72 192.864 134.8 189.216 130.96C185.568 127.072 183.744 121.072 183.744 112.96C183.744 104.512 185.568 98.392 189.216 94.6C192.864 90.808 198.36 88.912 205.704 88.912C213.096 88.912 218.592 90.808 222.192 94.6C225.84 98.392 227.664 104.512 227.664 112.96C227.664 121.072 225.84 127.072 222.192 130.96C218.592 134.8 213.096 136.72 205.704 136.72ZM205.704 130.096C210.552 130.096 214.104 128.776 216.36 126.136C218.664 123.448 219.816 119.056 219.816 112.96C219.816 106.528 218.664 102.04 216.36 99.496C214.104 96.904 210.552 95.608 205.704 95.608C200.904 95.608 197.352 96.904 195.048 99.496C192.792 102.04 191.664 106.528 191.664 112.96C191.664 119.056 192.792 123.448 195.048 126.136C197.352 128.776 200.904 130.096 205.704 130.096Z" fill="white"/>
<path d="M94.6898 187V180.88H101.314V187H94.6898ZM119.653 187.72C117.493 187.72 115.477 187.336 113.605 186.568C111.781 185.8 110.317 184.648 109.213 183.112C108.109 181.528 107.557 179.584 107.557 177.28C107.557 174.016 108.661 171.4 110.869 169.432C113.125 167.416 116.581 166.408 121.237 166.408H132.181V164.896C132.181 163.264 131.917 161.968 131.389 161.008C130.909 160.048 129.997 159.352 128.653 158.92C127.357 158.488 125.437 158.272 122.893 158.272C118.861 158.272 115.093 158.872 111.589 160.072V154.24C113.125 153.616 114.997 153.112 117.205 152.728C119.413 152.344 121.789 152.152 124.333 152.152C129.325 152.152 133.117 153.16 135.709 155.176C138.349 157.192 139.669 160.48 139.669 165.04V187H132.973L132.469 183.544C131.077 184.888 129.349 185.92 127.285 186.64C125.269 187.36 122.725 187.72 119.653 187.72ZM121.741 182.104C124.093 182.104 126.133 181.72 127.861 180.952C129.637 180.136 131.077 179.056 132.181 177.712V171.736H121.381C119.077 171.736 117.397 172.192 116.341 173.104C115.333 173.968 114.829 175.312 114.829 177.136C114.829 178.912 115.429 180.184 116.629 180.952C117.829 181.72 119.533 182.104 121.741 182.104ZM148.372 202.552V152.872H155.14L155.572 156.256C157.108 154.864 158.788 153.832 160.612 153.16C162.436 152.488 164.596 152.152 167.092 152.152C171.988 152.152 175.804 153.496 178.54 156.184C181.276 158.824 182.644 163.216 182.644 169.36C182.644 175.504 181.228 180.112 178.396 183.184C175.564 186.208 171.7 187.72 166.804 187.72C162.676 187.72 159.148 186.76 156.22 184.84V202.552H148.372ZM164.788 181.816C171.412 181.816 174.724 177.64 174.724 169.288C174.724 165.256 173.98 162.4 172.492 160.72C171.004 158.992 168.508 158.128 165.004 158.128C161.5 158.128 158.572 159.328 156.22 161.728V178.792C157.324 179.704 158.548 180.448 159.892 181.024C161.284 181.552 162.916 181.816 164.788 181.816ZM190.278 202.552V152.872H197.046L197.478 156.256C199.014 154.864 200.694 153.832 202.518 153.16C204.342 152.488 206.502 152.152 208.998 152.152C213.894 152.152 217.71 153.496 220.446 156.184C223.182 158.824 224.55 163.216 224.55 169.36C224.55 175.504 223.134 180.112 220.302 183.184C217.47 186.208 213.606 187.72 208.71 187.72C204.582 187.72 201.054 186.76 198.126 184.84V202.552H190.278ZM206.694 181.816C213.318 181.816 216.63 177.64 216.63 169.288C216.63 165.256 215.886 162.4 214.398 160.72C212.91 158.992 210.414 158.128 206.91 158.128C203.406 158.128 200.478 159.328 198.126 161.728V178.792C199.23 179.704 200.454 180.448 201.798 181.024C203.19 181.552 204.822 181.816 206.694 181.816Z" fill="white"/>
</svg>
